<svg width="24" height="16" viewBox="0 0 24 16" fill="none" xmlns="http://www.w3.org/2000/svg">
<rect x="0.385254" width="23.3333" height="16" rx="2" fill="#1F72CD"/>
<path fill-rule="evenodd" clip-rule="evenodd" d="M4.56837 5.66663L2.38525 10.4978H4.99875L5.32275 9.7275H6.06333L6.38733 10.4978H9.26405V9.90988L9.52039 10.4978H11.0085L11.2648 9.89745V10.4978H17.2476L17.9751 9.7475L18.6563 10.4978L21.7291 10.504L19.5391 8.09569L21.7291 5.66663H18.7039L17.9958 6.40304L17.336 5.66663H10.8275L10.2686 6.91359L9.69663 5.66663H7.08859V6.23453L6.79846 5.66663H4.56837ZM13.5025 6.35259H16.9381L17.9889 7.48764L19.0735 6.35259H20.1243L18.5278 8.09495L20.1243 9.81722H19.0259L17.9751 8.66899L16.8849 9.81722H13.5025V6.35259ZM14.3509 7.70328V7.07044V7.06983H16.4946L17.43 8.08191L16.4532 9.09951H14.3509V8.40863H16.2252V7.70328H14.3509ZM5.07396 6.35259H6.3479L7.79596 9.62863V6.35259H9.19151L10.31 8.7015L11.3408 6.35259H12.7293V9.81927H11.8844L11.8775 7.1028L10.6457 9.81927H9.88989L8.65118 7.1028V9.81927H6.913L6.58347 9.04209H4.80315L4.4743 9.81859H3.543L5.07396 6.35259ZM5.10702 8.32371L5.69356 6.93922L6.27942 8.32371H5.10702Z" fill="white"/>
</svg>
