<svg width="14" height="16" viewBox="0 0 14 16" fill="none" xmlns="http://www.w3.org/2000/svg">
<g clip-path="url(#clip0_234_6521)">
<path fill-rule="evenodd" clip-rule="evenodd" d="M7.23007 3.68646C8.13255 3.76294 9.03504 3.22757 9.601 2.55453C10.1517 1.86619 10.5188 0.933116 10.427 -0.0152588C9.6316 0.0153339 8.63733 0.520114 8.08666 1.20845C7.56659 1.80501 7.12299 2.76868 7.24536 3.67117L7.23007 3.68646Z" fill="#2A2B32"/>
<path fill-rule="evenodd" clip-rule="evenodd" d="M10.4115 3.87003C9.61613 3.82414 8.8972 4.11477 8.31593 4.34422C7.93353 4.49718 7.6276 4.61955 7.38286 4.61955C7.10752 4.61955 6.7863 4.48189 6.40389 4.34422C5.91441 4.14537 5.36374 3.93122 4.76718 3.93122C3.4211 3.94651 2.18209 4.71133 1.49375 5.93504C0.0864891 8.38246 1.12664 11.9924 2.48802 13.9809C3.16106 14.9599 3.95647 16.0459 4.99662 16.0001C5.45551 15.9848 5.79203 15.8471 6.12855 15.6941C6.52626 15.5259 6.93926 15.3423 7.58171 15.3423C8.22416 15.3423 8.59127 15.5106 8.97368 15.6788C9.32549 15.8318 9.67731 15.9848 10.1974 15.9695C11.2834 15.9542 11.9718 14.9905 12.6295 13.9962C13.3484 12.9408 13.6697 11.9159 13.7156 11.7477C13.7156 11.7477 13.7156 11.7171 13.685 11.7171C13.4402 11.61 11.6047 10.7534 11.5894 8.48954C11.5741 6.57749 13.0425 5.61382 13.272 5.46085L13.3026 5.44556C12.3695 4.03829 10.901 3.90063 10.3962 3.85474L10.4115 3.87003Z" fill="#2A2B32"/>
</g>
<defs>
<clipPath id="clip0_234_6521">
<rect width="12.9101" height="16" fill="white" transform="translate(0.820801)"/>
</clipPath>
</defs>
</svg>
