<svg width="50" height="50" viewBox="0 0 50 50" fill="none" xmlns="http://www.w3.org/2000/svg">
<rect width="50" height="50" rx="8" fill="#161C21"/>
<path d="M16.4041 13.9015L25 9L33.5959 13.9015L30.4356 15.7122L25 12.6215L19.5644 15.7122L16.4041 13.9015ZM33.5959 20.0829L30.4356 18.2722L25 21.3629L19.5644 18.2722L16.4041 20.0829V23.7044L21.8397 26.7951V32.9766L25 34.7873L28.1603 32.9766V26.7951L33.5959 23.7044V20.0829ZM33.5959 29.8859V26.2644L30.4356 28.0751V31.6966L33.5959 29.8859ZM35.8397 31.1659L30.4041 34.2566V37.878L39 32.9766V23.1737L35.8397 24.9844V31.1659ZM32.6795 16.9922L35.8397 18.8029V22.4244L39 20.6137V16.9922L35.8397 15.1815L32.6795 16.9922ZM21.8397 35.5678V39.1893L25 41L28.1603 39.1893V35.5678L25 37.3785L21.8397 35.5678ZM16.4041 29.8859L19.5644 31.6966V28.0751L16.4041 26.2644V29.8859ZM21.8397 16.9922L25 18.8029L28.1603 16.9922L25 15.1815L21.8397 16.9922ZM14.1603 18.8029L17.3205 16.9922L14.1603 15.1815L11 16.9922V20.6137L14.1603 22.4244V18.8029ZM14.1603 24.9844L11 23.1737V32.9766L19.5959 37.878V34.2566L14.1603 31.1659V24.9844Z" fill="#F0B90B"/>
</svg>
