<svg width="50" height="50" viewBox="0 0 50 50" fill="none" xmlns="http://www.w3.org/2000/svg">
<rect width="50" height="50" rx="8" fill="#FFF0CD"/>
<path d="M18.1425 12.9538C18.1707 12.9242 18.1974 12.9295 18.2369 12.9401C19.0532 13.159 19.8696 13.3094 20.6859 13.532C21.5235 13.7604 22.3611 13.9127 23.1987 14.1412C23.4271 14.2173 23.5033 14.1412 23.5794 13.9127C23.884 12.6183 24.1886 11.3999 24.4931 10.1055C24.5693 9.87704 24.6454 9.8009 24.8739 9.87704C25.6353 10.1055 26.3206 10.2578 27.0821 10.4101C27.3492 10.4991 27.1997 10.8524 27.1322 11.1258C26.864 12.212 26.5958 13.3441 26.3275 14.4181C26.3229 14.4365 26.3207 14.4474 26.3206 14.4663C26.3194 14.6147 26.381 14.7844 26.5252 14.8193C27.026 14.9406 27.5606 15.062 28.052 15.1833C28.1159 15.1991 28.1685 15.217 28.2167 15.1722C28.3271 15.0694 28.3944 14.9007 28.4288 14.7538C28.6402 13.8492 28.8566 12.9997 29.138 12.0852C29.1971 11.8488 29.2562 11.6123 29.3153 11.3758C29.3493 11.2401 29.3158 11.0501 29.4454 10.9973C29.5364 10.9603 29.6421 11.0337 29.7365 11.0609C30.4461 11.2654 31.1597 11.4121 31.939 11.6239C31.9498 11.6269 31.9643 11.628 31.9753 11.6304C32.0549 11.6471 32.0902 11.7802 32.0717 11.8595C31.8553 12.7901 31.6388 13.656 31.4223 14.5219C31.3462 14.9026 31.27 15.2833 31.1177 15.664C31.0416 15.8925 31.1177 15.9686 31.3462 16.0448C32.1838 16.4255 33.0214 16.8062 33.859 17.1869C34.6204 17.6438 35.3057 18.253 35.8387 19.0144C36.524 20.1566 36.6002 21.3749 36.2956 22.5932C36.0672 23.4308 35.7626 24.1923 35.1534 24.8014C34.7008 25.2541 34.0986 25.5572 33.4951 25.785C33.4839 25.7892 33.4771 25.7907 33.4652 25.792C33.3702 25.8022 33.3385 25.9855 33.4186 26.0377C33.6415 26.183 33.8644 26.3094 34.0874 26.4766C35.0011 27.1619 35.6103 27.9995 35.9149 29.0655C36.0672 29.9031 35.991 30.8169 35.7626 31.6545C35.458 32.7205 35.0773 33.6342 34.392 34.4718C33.5544 35.4617 32.4883 35.9947 31.27 36.147C29.8741 36.3464 28.5361 36.2557 27.2056 36.0774C26.8189 36.0256 26.2917 35.8531 26.1683 36.2231C25.8638 37.4415 25.5592 38.7359 25.2546 39.9542C25.2527 39.9617 25.2509 39.969 25.2491 39.9762C25.1453 40.3953 24.5855 40.1373 24.1673 40.0299C23.6643 39.9007 23.1463 39.7565 22.6657 39.6497C22.3986 39.5606 22.5458 39.2067 22.6105 38.9327C22.8674 37.8448 23.13 36.7625 23.4436 35.7313C23.4827 35.6029 23.542 35.4669 23.5206 35.3344C23.5052 35.2388 23.3797 35.2214 23.2858 35.1979C23.2703 35.1941 23.2548 35.1902 23.2393 35.1863C22.294 34.9503 21.3137 35.5378 21.0742 36.4821C21.0446 36.5989 21.0164 36.7156 20.9905 36.8323C20.8675 37.3858 20.6948 37.9394 20.5527 38.4929C20.4855 38.7545 20.4091 39.1259 20.1529 39.0405C19.3914 38.8121 18.63 38.6598 17.8685 38.5075C17.6015 38.4185 17.7487 38.0645 17.8134 37.7905C18.0822 36.6519 18.3573 35.5196 18.6906 34.4454C18.7009 34.4124 18.7027 34.3911 18.7117 34.3576C18.752 34.2074 18.6772 34.0637 18.5267 34.0244C17.1474 33.6646 15.7657 33.3048 14.3446 32.945C13.8868 32.8291 13.6217 32.3053 13.8329 31.8829C14.1375 31.1976 14.442 30.5123 14.6705 29.9031C14.7749 29.5898 15.2117 29.723 15.5314 29.8056C15.9318 29.9091 16.3483 30.0014 16.7264 30.0554C17.3355 30.2077 17.7924 29.9031 17.8685 29.3701C18.8584 25.4867 19.8483 21.6033 20.7621 17.6438C20.9143 17.0347 20.5336 16.3494 19.8483 16.1209C19.2344 15.9163 18.6204 15.7727 18.0613 15.6356C17.9332 15.6042 17.7509 15.6327 17.696 15.5128C17.6871 15.4932 17.6842 15.4698 17.6881 15.4425C17.6965 15.3846 17.724 15.3311 17.7393 15.2746C17.9313 14.5667 18.1232 13.8086 18.3151 13.0908C18.3431 12.9861 18.0677 13.0321 18.1425 12.9538ZM22.0932 31.5919C22.0748 31.6619 22.1485 31.752 22.2022 31.8005C22.217 31.8139 22.219 31.8093 22.2384 31.8141C23.448 32.1175 24.732 32.4927 26.016 32.5682C26.9298 32.6443 27.7674 32.6443 28.605 32.3398C30.0517 31.8829 30.6609 29.9793 29.8233 28.761C29.4426 28.1518 28.8334 27.7711 28.2242 27.3903C26.8536 26.6289 25.2546 26.3243 23.7317 26.0197C23.5033 25.9436 23.5033 26.0197 23.4271 26.2482C23.2748 27.0096 23.0464 27.6949 22.8941 28.4564C22.6019 29.4791 22.3798 30.5019 22.0932 31.5919ZM28.4527 23.9638C28.605 23.9638 28.9857 23.8877 29.2903 23.8115C30.737 23.507 31.4985 21.8318 30.737 20.5373C30.3563 19.852 29.671 19.3951 28.9857 19.0906C27.9197 18.6337 26.8536 18.4053 25.7115 18.1007C25.483 18.0245 25.4069 18.1007 25.3307 18.3291C24.9639 19.8699 24.5971 21.3399 24.1621 22.8755C24.1292 22.9917 24.0439 23.1101 24.0964 23.2189C24.1583 23.3472 24.3347 23.3715 24.4721 23.4092C24.6828 23.4672 24.8705 23.5252 25.1023 23.5831C26.2445 23.7354 27.2344 23.9638 28.4527 23.9638Z" fill="#F5B300"/>
</svg>
