<svg width="22" height="22" viewBox="0 0 22 22" fill="none" xmlns="http://www.w3.org/2000/svg">
<path fill-rule="evenodd" clip-rule="evenodd" d="M21.9989 11C21.9989 17.0751 17.0743 22 10.9995 22C4.92462 22 0 17.0751 0 11C0 4.92487 4.92462 0 10.9995 0C17.0743 0 21.9989 4.92487 21.9989 11ZM13.6412 6.91315C15.1713 7.43859 16.2906 8.22539 16.071 9.68963C15.9115 10.7618 15.3149 11.2804 14.5223 11.462C15.6098 12.0259 15.9804 13.0963 15.636 14.3905C14.9821 16.2529 13.4279 16.4097 11.3607 16.0204L10.8587 18.0225L9.64692 17.7213L10.142 15.746C9.82782 15.6683 9.50676 15.5851 9.17603 15.4964L8.67889 17.4812L7.46851 17.18L7.96979 15.1738L5.529 14.5603L6.13109 13.1779C6.13109 13.1779 7.02455 13.4138 7.01212 13.3966C7.35528 13.4812 7.50787 13.2584 7.56794 13.1105L8.92815 7.67656C8.94334 7.42002 8.85427 7.09678 8.36335 6.97436C8.382 6.96129 7.48301 6.75634 7.48301 6.75634L7.80546 5.46679L10.2497 6.06996L10.7468 4.08646L11.9579 4.3877L11.4711 6.33199C11.797 6.40558 12.1243 6.48055 12.4426 6.55964L12.9259 4.62773L14.1377 4.92897L13.6412 6.91315ZM10.7422 10.2219C11.5677 10.4407 13.3638 10.9169 13.6769 9.66832C13.9963 8.39081 12.2512 8.00498 11.3968 7.81607C11.3 7.79466 11.2146 7.77578 11.145 7.75842L10.5415 10.1697C10.599 10.1839 10.6665 10.2018 10.7422 10.2219ZM9.80653 14.1041C10.7952 14.3645 12.9575 14.9341 13.3015 13.5582C13.6537 12.1514 11.5572 11.6828 10.5343 11.4542C10.42 11.4286 10.3191 11.4061 10.2366 11.3856L9.57095 14.0431C9.63854 14.0598 9.71771 14.0807 9.80632 14.104L9.80653 14.1041Z" fill="#F7931A"/>
</svg>
