<svg width="50" height="50" viewBox="0 0 50 50" fill="none" xmlns="http://www.w3.org/2000/svg">
<g clip-path="url(#clip0_1653_169)">
<path d="M42 0H8C3.58172 0 0 3.58172 0 8V42C0 46.4183 3.58172 50 8 50H42C46.4183 50 50 46.4183 50 42V8C50 3.58172 46.4183 0 42 0Z" fill="#FBF3DF"/>
<path fill-rule="evenodd" clip-rule="evenodd" d="M20.6632 15.2048C18.351 17.5173 16.4591 19.4692 16.4591 19.5422C16.4591 19.7147 19.3697 22.6226 19.5424 22.6226C19.6148 22.6226 20.8424 21.4538 22.2704 20.0252C23.6984 18.5965 24.9267 17.4277 25 17.4277C25.0733 17.4277 26.3016 18.5965 27.7296 20.0252C29.1576 21.4538 30.386 22.6226 30.4596 22.6226C30.6325 22.6226 33.5409 19.7127 33.5409 19.5396C33.5409 19.3674 25.1715 11 24.9993 11C24.9267 11 22.9754 12.8921 20.6632 15.2048ZM12.4739 23.3941C11.6633 24.2057 11 24.9293 11 25.0019C11 25.1743 13.9111 28.0818 14.0837 28.0818C14.256 28.0818 17.1635 25.1706 17.1635 24.9981C17.1635 24.8257 14.2524 21.9182 14.0798 21.9182C14.0072 21.9182 13.2845 22.5823 12.4739 23.3941ZM23.3921 23.3941C22.5815 24.2057 21.9182 24.9293 21.9182 25.0019C21.9182 25.1743 24.8294 28.0818 25.0019 28.0818C25.1743 28.0818 28.0818 25.1706 28.0818 24.9981C28.0818 24.8257 25.1706 21.9182 24.9981 21.9182C24.9254 21.9182 24.2027 22.5823 23.3921 23.3941ZM34.3104 23.3941C33.4998 24.2057 32.8365 24.9293 32.8365 25.0019C32.8365 25.1743 35.7476 28.0818 35.9202 28.0818C36.0925 28.0818 39 25.1706 39 24.9981C39 24.8257 36.0889 21.9182 35.9163 21.9182C35.8437 21.9182 35.1209 22.5823 34.3104 23.3941ZM17.933 28.8532C17.1224 29.6648 16.4591 30.3881 16.4591 30.4604C16.4591 30.6326 24.8285 39 25.0007 39C25.1737 39 33.5409 30.6309 33.5409 30.4578C33.5409 30.2853 30.6303 27.3774 30.4576 27.3774C30.3852 27.3774 29.1576 28.5462 27.7296 29.9748C26.3016 31.4035 25.0733 32.5723 25 32.5723C24.9267 32.5723 23.6984 31.4035 22.2704 29.9748C20.8424 28.5462 19.614 27.3774 19.5404 27.3774C19.467 27.3774 18.7436 28.0414 17.933 28.8532Z" fill="#F3BA2F"/>
</g>
<defs>
<clipPath id="clip0_1653_169">
<rect width="50" height="50" fill="white"/>
</clipPath>
</defs>
</svg>
