<svg width="31" height="23" viewBox="0 0 31 23" fill="none" xmlns="http://www.w3.org/2000/svg">
<rect opacity="0.3" x="0.444336" y="4.16663" width="26.8889" height="18.3333" rx="1" fill="#8C95A5"/>
<path d="M0.444336 5.16663C0.444336 4.61434 0.892051 4.16663 1.44434 4.16663H26.3332C26.8855 4.16663 27.3332 4.61434 27.3332 5.16663V9.05551H0.444336V5.16663Z" fill="#8C95A5"/>
<rect x="2.88867" y="12.7222" width="22" height="2.44444" rx="1" fill="white"/>
<path d="M23.6666 15.1667C27.7167 15.1667 30.9999 11.8834 30.9999 7.83333C30.9999 3.78324 27.7167 0.5 23.6666 0.5C19.6165 0.5 16.3333 3.78324 16.3333 7.83333C16.3333 11.8834 19.6165 15.1667 23.6666 15.1667Z" fill="#8C95A5"/>
<path d="M20.1278 4.96084V10.1887H19.179V6.06728L17.9221 6.48265V5.71637L20.0204 4.96084H20.1278Z" fill="white"/>
<path d="M25.413 9.44391V10.1887H21.8824V9.55133L23.5761 7.72158C23.7527 7.52106 23.8924 7.34679 23.995 7.19879C24.0977 7.05079 24.1705 6.91711 24.2135 6.79775C24.2588 6.67601 24.2815 6.56023 24.2815 6.45042C24.2815 6.29048 24.2528 6.15083 24.1956 6.03147C24.1383 5.90973 24.0547 5.81544 23.9449 5.7486C23.8375 5.68176 23.705 5.64834 23.5474 5.64834C23.3732 5.64834 23.224 5.68892 23.0999 5.77008C22.9781 5.84886 22.885 5.95867 22.8206 6.09951C22.7585 6.24035 22.7275 6.40148 22.7275 6.58291H21.7786C21.7786 6.27496 21.8502 5.99447 21.9934 5.74143C22.1366 5.48601 22.3419 5.28191 22.6093 5.12913C22.8767 4.97635 23.1941 4.89996 23.5618 4.89996C23.9198 4.89996 24.223 4.95964 24.4713 5.079C24.7195 5.19597 24.9081 5.36307 25.037 5.5803C25.1659 5.79753 25.2304 6.05654 25.2304 6.35732C25.2304 6.52442 25.2029 6.68913 25.148 6.85146C25.0931 7.01379 25.0155 7.17492 24.9153 7.33486C24.8174 7.49241 24.7004 7.65235 24.5644 7.81468C24.4283 7.977 24.2767 8.14291 24.1096 8.3124L23.0927 9.44391H25.413Z" fill="white"/>
<path d="M27.1067 7.16298H27.6402C27.8288 7.16298 27.984 7.13076 28.1057 7.0663C28.2298 6.99946 28.3217 6.90875 28.3814 6.79417C28.4435 6.6772 28.4745 6.54232 28.4745 6.38955C28.4745 6.23916 28.4471 6.10906 28.3922 5.99925C28.3373 5.88705 28.2537 5.80111 28.1415 5.74143C28.0317 5.67937 27.8909 5.64834 27.719 5.64834C27.5805 5.64834 27.4528 5.67579 27.3359 5.73069C27.2213 5.7856 27.1294 5.86437 27.0601 5.96702C26.9933 6.06728 26.9599 6.18783 26.9599 6.32867H26.011C26.011 6.04699 26.085 5.79992 26.233 5.58746C26.3834 5.37262 26.5863 5.20433 26.8417 5.08258C27.0971 4.96084 27.3824 4.89996 27.6975 4.89996C28.0413 4.89996 28.342 4.95726 28.5999 5.07184C28.8601 5.18403 29.0618 5.34994 29.205 5.56956C29.3506 5.78918 29.4234 6.06131 29.4234 6.38597C29.4234 6.54113 29.3864 6.6963 29.3124 6.85146C29.2408 7.00424 29.1346 7.14269 28.9937 7.26683C28.8553 7.38857 28.6846 7.48764 28.4817 7.56403C28.2812 7.63803 28.0508 7.67503 27.7906 7.67503H27.1067V7.16298ZM27.1067 7.89345V7.38857H27.7906C28.0842 7.38857 28.3385 7.42318 28.5533 7.49241C28.7705 7.55925 28.9496 7.65474 29.0904 7.77887C29.2313 7.90061 29.3351 8.04265 29.4019 8.20498C29.4712 8.3673 29.5058 8.54156 29.5058 8.72776C29.5058 8.97125 29.4604 9.18848 29.3697 9.37946C29.279 9.56804 29.1513 9.72798 28.9866 9.85927C28.8242 9.99057 28.6333 10.0908 28.4137 10.1601C28.194 10.2269 27.9565 10.2603 27.7011 10.2603C27.4791 10.2603 27.263 10.2305 27.053 10.1708C26.8453 10.1087 26.6579 10.0168 26.4908 9.89508C26.3237 9.77095 26.1912 9.61578 26.0933 9.42959C25.9955 9.241 25.9465 9.02258 25.9465 8.77431H26.8954C26.8954 8.91754 26.93 9.04525 26.9993 9.15745C27.0709 9.26965 27.1688 9.35797 27.2929 9.42242C27.4194 9.48449 27.5614 9.51552 27.719 9.51552C27.8933 9.51552 28.0425 9.48449 28.1666 9.42242C28.2931 9.35797 28.3898 9.26726 28.4566 9.15029C28.5235 9.03093 28.5569 8.8889 28.5569 8.72418C28.5569 8.52844 28.5199 8.36969 28.4459 8.24795C28.3719 8.1262 28.2657 8.03668 28.1272 7.97939C27.9911 7.9221 27.8288 7.89345 27.6402 7.89345H27.1067Z" fill="white"/>
</svg>
