<svg width="50" height="50" viewBox="0 0 50 50" fill="none" xmlns="http://www.w3.org/2000/svg">
<rect width="50" height="50" rx="8" fill="#EEEEF0"/>
<g clip-path="url(#clip0_233_1379)">
<path d="M25.3758 9.09091L25.165 9.79853V30.3319L25.3758 30.5397L35.0269 24.9058L25.3758 9.09091Z" fill="#343434"/>
<path d="M25.376 9.09091L15.7249 24.9058L25.376 30.5398V20.5735V9.09091Z" fill="#8C8C8C"/>
<path d="M25.3761 32.3444L25.2573 32.4875V39.8019L25.3761 40.1445L35.033 26.7133L25.3761 32.3444Z" fill="#3C3C3B"/>
<path d="M25.376 40.1445V32.3443L15.7249 26.7132L25.376 40.1445Z" fill="#8C8C8C"/>
<path d="M25.376 30.5397L35.0269 24.9059L25.376 20.5736V30.5397Z" fill="#141414"/>
<path d="M15.7249 24.9058L25.3758 30.5397V20.5735L15.7249 24.9058Z" fill="#393939"/>
</g>
<defs>
<clipPath id="clip0_233_1379">
<rect x="15.7249" y="9.09091" width="19.3079" height="31.0606" rx="8" fill="white"/>
</clipPath>
</defs>
</svg>
