<svg width="48" height="48" viewBox="0 0 48 48" fill="none" xmlns="http://www.w3.org/2000/svg"><g clip-path="url(#clip0_19_17)"><g filter="url(#filter0_i_19_17)"><path d="M24 48C37.2548 48 48 37.2548 48 24C48 10.7452 37.2548 0 24 0C10.7452 0 0 10.7452 0 24C0 37.2548 10.7452 48 24 48Z" fill="#E8BD77"></path><rect width="48" height="48" rx="8" fill="#E8BD77"></rect><path d="M32.1521 16.2542C31.4479 15.55 29.3354 14.1417 25.8146 14.1417C20.6994 14.1417 18.3367 17.3529 17.6155 21.1833M17.6155 21.1833C17.4432 22.0986 17.3646 23.0493 17.3646 24C17.3646 24.9507 17.4432 25.9014 17.6155 26.8167M17.6155 21.1833H13.1396M17.6155 21.1833H27.2229M32.1521 31.7458C31.4479 32.45 29.3354 33.8583 25.8146 33.8583C20.6994 33.8583 18.3367 30.6472 17.6155 26.8167M17.6155 26.8167H13.1396H27.2229" stroke="white" stroke-width="2.41428"></path></g></g><defs><filter id="filter0_i_19_17" x="0" y="0" width="48" height="48.5439" filterUnits="userSpaceOnUse" color-interpolation-filters="sRGB"><feFlood flood-opacity="0" result="BackgroundImageFix"></feFlood><feBlend mode="normal" in="SourceGraphic" in2="BackgroundImageFix" result="shape"></feBlend><feColorMatrix in="SourceAlpha" type="matrix" values="0 0 0 0 0 0 0 0 0 0 0 0 0 0 0 0 0 0 127 0" result="hardAlpha"></feColorMatrix><feOffset dy="0.543909"></feOffset><feGaussianBlur stdDeviation="0.951841"></feGaussianBlur><feComposite in2="hardAlpha" operator="arithmetic" k2="-1" k3="1"></feComposite><feColorMatrix type="matrix" values="0 0 0 0 0.996078 0 0 0 0 0.921569 0 0 0 0 0.866667 0 0 0 1 0"></feColorMatrix><feBlend mode="normal" in2="shape" result="effect1_innerShadow_19_17"></feBlend></filter><clipPath id="clip0_19_17"><rect width="48" height="48" fill="white"></rect></clipPath></defs></svg>
