<svg width="16" height="16" viewBox="0 0 16 16" fill="none" xmlns="http://www.w3.org/2000/svg">
<path d="M15.8206 8.17808C15.8206 7.63365 15.7778 7.08923 15.6922 6.55591H8.42603V9.63359H12.5888C12.4176 10.6225 11.8611 11.5113 11.0478 12.0669V14.0668H13.5305C14.9859 12.6779 15.8206 10.6225 15.8206 8.17808Z" fill="#4285F4"/>
<path d="M8.42608 15.9998C10.5021 15.9998 12.2571 15.2887 13.5306 14.0665L11.0479 12.0666C10.3523 12.5555 9.4641 12.8332 8.42608 12.8332C6.41424 12.8332 4.71274 11.4222 4.10277 9.53333H1.54517V11.5999C2.85072 14.2998 5.51533 15.9998 8.42608 15.9998Z" fill="#34A853"/>
<path d="M4.10332 9.53344C3.78223 8.54459 3.78223 7.46684 4.10332 6.46687V4.41138H1.54531C0.442904 6.66686 0.442904 9.33345 1.54531 11.5889L4.10332 9.53344Z" fill="#FBBC04"/>
<path d="M8.42608 3.16705C9.52831 3.14483 10.5877 3.57815 11.3796 4.36702L13.5841 2.0782C12.1822 0.722684 10.3416 -0.021738 8.42608 0.000483552C5.51534 0.000483552 2.85072 1.71154 1.54517 4.41146L4.10277 6.47807C4.71274 4.57812 6.41424 3.16705 8.42608 3.16705Z" fill="#EA4335"/>
</svg>
