<svg width="50" height="50" viewBox="0 0 50 50" fill="none" xmlns="http://www.w3.org/2000/svg">
<g clip-path="url(#clip0_1653_206)">
<path d="M42 0H8C3.58172 0 0 3.58172 0 8V42C0 46.4183 3.58172 50 8 50H42C46.4183 50 50 46.4183 50 42V8C50 3.58172 46.4183 0 42 0Z" fill="#E5E5E5"/>
<path fill-rule="evenodd" clip-rule="evenodd" d="M14.6419 14.5258C13.0483 15.5287 12.999 15.8299 13 24.5517C13.0008 31.9005 13.0357 32.499 13.5102 33.3018C14.5041 34.9848 14.5928 34.9977 25.0487 34.9966C37.6542 34.9953 36.9941 35.4112 36.9941 27.4728V22.6133H30.723H24.4519L24.5286 24.5652L24.6053 26.5171L28.3331 26.5919L32.0612 26.6665L31.9846 28.6111L31.9081 30.5555H24.9965H18.0849V24.3633V18.1711H24.9965H31.9081L31.9916 18.7769C32.0712 19.3562 32.1823 19.3826 34.5346 19.3826H36.9941V18.023C36.9941 16.3638 36.4578 15.222 35.3512 14.5258C34.5635 14.0299 33.9793 14 24.9965 14C16.0137 14 15.4295 14.0299 14.6419 14.5258ZM34.9206 14.9474C35.3436 15.1733 35.69 15.4185 35.69 15.4926C35.69 15.5666 35.3355 15.4382 34.9026 15.2069C34.2229 14.8443 32.8155 14.7972 24.6246 14.8634C19.4049 14.9059 15.2702 14.8513 15.436 14.7425C15.6019 14.6338 19.8806 14.543 24.9444 14.5406C32.6924 14.5371 34.273 14.6017 34.9206 14.9474ZM14.8247 15.1768C14.8247 15.2325 14.6194 15.4447 14.3683 15.6479C13.9546 15.9826 13.9455 15.9732 14.2697 15.5462C14.6106 15.0976 14.8247 14.9552 14.8247 15.1768ZM33.6687 23.3529C32.055 23.4 29.4142 23.4 27.8003 23.3529C26.1866 23.3055 27.5069 23.267 30.7345 23.267C33.9621 23.267 35.2826 23.3055 33.6687 23.3529ZM32.1285 31.2958C32.0623 31.4068 28.8527 31.4978 24.9965 31.4978C21.1404 31.4978 17.9307 31.4068 17.8645 31.2958C17.798 31.1846 21.0073 31.0939 24.9965 31.0939C28.9857 31.0939 32.195 31.1846 32.1285 31.2958Z" fill="#868686"/>
</g>
<defs>
<clipPath id="clip0_1653_206">
<rect width="50" height="50" fill="white"/>
</clipPath>
</defs>
</svg>
