<svg width="50" height="50" viewBox="0 0 50 50" fill="none" xmlns="http://www.w3.org/2000/svg">
<rect width="50" height="50" rx="8" fill="#E0EBFF"/>
<path d="M23.9107 31.7998C27.8331 31.8759 31.6837 31.9499 35.6062 32.1C35.4625 32.6982 35.3166 33.2203 35.2448 33.7446C35.025 34.4929 34.8073 35.1672 34.6636 35.9155C34.5896 36.2896 34.4438 36.3636 34.0824 36.3636H15.3387C15.9939 33.7446 16.6469 31.2777 17.3 28.6587C16.2834 29.0328 15.4106 29.407 14.394 29.8551C14.6857 28.7348 14.9752 27.7624 15.3387 26.7139C15.3387 26.5659 15.5564 26.4899 15.7022 26.4899C16.3574 26.1918 17.0823 25.9656 17.7353 25.6654C17.953 25.5936 18.1728 25.3695 18.1728 25.1433L21.2203 13.477C21.2943 13.0289 21.438 12.8788 21.9473 12.8788H28.558C27.7591 15.9439 27.0321 19.0132 26.2333 22.2283C27.3956 21.7062 28.4861 21.256 29.7204 20.8078C29.5745 21.406 29.3569 21.9282 29.285 22.4524C29.1392 23.651 28.4861 24.3232 27.3238 24.6233C26.8166 24.7713 26.3051 24.9954 25.7979 25.2215C25.6178 25.3323 25.4681 25.4864 25.3625 25.6697C24.8532 27.6884 24.3439 29.6331 23.9085 31.6519V31.802L23.9107 31.7998Z" fill="#3E5D99"/>
</svg>
