<svg width="28" height="16" viewBox="0 0 28 16" fill="none" xmlns="http://www.w3.org/2000/svg">
<path d="M17.7551 1.71106H10.6169V14.2887H17.7551V1.71106Z" fill="#FF5A00"/>
<path d="M11.0701 8.00007C11.0701 5.44453 12.2938 3.17788 14.1746 1.71122C12.7923 0.644565 11.0474 0.00012207 9.14393 0.00012207C4.63445 0.00012207 0.986084 3.57788 0.986084 8.00007C0.986084 12.4223 4.63445 16 9.14393 16C11.0474 16 12.7923 15.3556 14.1746 14.2889C12.2938 12.8445 11.0701 10.5556 11.0701 8.00007Z" fill="#EB001B"/>
<path d="M27.3853 7.99994C27.3853 12.4221 23.7369 15.9999 19.2274 15.9999C17.3239 15.9999 15.5791 15.3555 14.1968 14.2888C16.1003 12.8221 17.3013 10.5555 17.3013 7.99994C17.3013 5.44441 16.0776 3.17776 14.1968 1.7111C15.5791 0.644443 17.3239 0 19.2274 0C23.7369 0 27.3853 3.59997 27.3853 7.99994Z" fill="#F79E1B"/>
</svg>
