<svg width="30" height="31" viewBox="0 0 30 31" fill="none" xmlns="http://www.w3.org/2000/svg">
<path d="M28.75 8V1.75H22.5" stroke="#8C95A5" stroke-opacity="0.3" stroke-width="1.25" stroke-linejoin="round"/>
<path d="M1.25 23L1.25 29.25L7.5 29.25" stroke="#8C95A5" stroke-opacity="0.3" stroke-width="1.5" stroke-linejoin="round"/>
<path d="M1.25 8V1.75H7.5" stroke="#8C95A5" stroke-opacity="0.3" stroke-width="1.5" stroke-linejoin="round"/>
<path d="M28.75 23L28.75 29.25L22.5 29.25" stroke="#8C95A5" stroke-opacity="0.3" stroke-width="1.5" stroke-linejoin="round"/>
<path fill-rule="evenodd" clip-rule="evenodd" d="M25.0082 22.112C25.3587 21.7616 25.5556 21.2863 25.5556 20.7907V10.5129C25.5556 10.0173 25.3587 9.54199 25.0082 9.19154C24.6578 8.84109 24.1825 8.64422 23.6869 8.64422H19.9495L18.0808 5.84119H12.4747L10.6061 8.64422H6.86869C6.37308 8.64422 5.89777 8.84109 5.54733 9.19154C5.19688 9.54199 5 10.0173 5 10.5129V20.7907C5 21.2863 5.19688 21.7616 5.54733 22.112C5.89777 22.4625 6.37308 22.6594 6.86869 22.6594H23.6869C24.1825 22.6594 24.6578 22.4625 25.0082 22.112ZM19.0151 15.1845C19.0151 17.2486 17.3418 18.9219 15.2777 18.9219C13.2136 18.9219 11.5403 17.2486 11.5403 15.1845C11.5403 13.1204 13.2136 11.4471 15.2777 11.4471C17.3418 11.4471 19.0151 13.1204 19.0151 15.1845Z" fill="#8C95A5"/>
</svg>
