<svg width="280" height="235" viewBox="0 0 280 235" fill="none" xmlns="http://www.w3.org/2000/svg">
<path d="M248.897 79.2965C252.043 79.2965 254.593 76.7462 254.593 73.6004C254.593 70.4545 252.043 67.9043 248.897 67.9043C245.751 67.9043 243.201 70.4545 243.201 73.6004C243.201 76.7462 245.751 79.2965 248.897 79.2965Z" stroke="#277CFB" stroke-miterlimit="10" stroke-linecap="round" stroke-linejoin="round"/>
<path d="M228.995 2.2498L232.572 8.79358C232.84 9.27945 233.233 9.67229 233.719 9.94107L240.263 13.5179C242.258 14.6137 242.258 17.4773 240.263 18.5627L233.719 22.1396C233.233 22.4084 232.84 22.8012 232.572 23.2871L228.995 29.8308C227.899 31.826 225.036 31.826 223.95 29.8308L220.373 23.2871C220.104 22.8012 219.712 22.4084 219.226 22.1396L212.682 18.5627C210.687 17.4669 210.687 14.6034 212.682 13.5179L219.226 9.94107C219.712 9.67229 220.104 9.27945 220.373 8.79358L223.95 2.2498C225.036 0.254623 227.909 0.254623 228.995 2.2498Z" fill="#D4E5FF"/>
<path d="M193.123 214.513L193.123 214.514L195.58 219.009L195.581 219.011C195.812 219.427 196.149 219.765 196.565 219.995L196.567 219.996L201.061 222.452C201.061 222.452 201.061 222.453 201.062 222.453C202.087 223.017 202.083 224.485 201.063 225.04L201.062 225.04L196.567 227.497L196.565 227.498C196.149 227.729 195.812 228.066 195.581 228.482L195.58 228.484L193.124 232.978C193.124 232.978 193.124 232.978 193.124 232.978C192.56 234.004 191.092 234 190.536 232.98L190.536 232.979L188.079 228.484L188.078 228.482C187.848 228.066 187.51 227.729 187.094 227.498L187.092 227.497L182.598 225.041C182.598 225.041 182.598 225.041 182.598 225.041C181.572 224.477 181.576 223.008 182.596 222.453L182.597 222.453L187.092 219.996L187.092 219.996L187.094 219.995C187.51 219.765 187.848 219.427 188.078 219.011L188.079 219.009L190.536 214.514L190.536 214.513C191.092 213.491 192.567 213.491 193.123 214.513Z" stroke="#277CFB"/>
<path d="M20.1753 160.324C30.5834 160.324 39.0209 151.887 39.0209 141.478C39.0209 131.07 30.5834 122.633 20.1753 122.633C9.76708 122.633 1.32959 131.07 1.32959 141.478C1.32959 151.887 9.76708 160.324 20.1753 160.324Z" fill="#D4E5FF"/>
<path d="M136.998 202.584C184.312 202.584 222.667 164.229 222.667 116.915C222.667 69.6018 184.312 31.2466 136.998 31.2466C89.6848 31.2466 51.3296 69.6018 51.3296 116.915C51.3296 164.229 89.6848 202.584 136.998 202.584Z" fill="#F2F7FF"/>
<path d="M242.074 141.478H278.67" stroke="#277CFB" stroke-miterlimit="10" stroke-linecap="round" stroke-linejoin="round"/>
<path d="M79.3296 230.247H115.925" stroke="#277CFB" stroke-miterlimit="10" stroke-linecap="round" stroke-linejoin="round"/>
<path d="M1.33984 51.4053H57.7011" stroke="#277CFB" stroke-miterlimit="10" stroke-linecap="round" stroke-linejoin="round"/>
<path d="M167.33 95.2466L124.028 139.247L105.33 120.389" stroke="#277CFB" stroke-width="5" stroke-linecap="round" stroke-linejoin="round"/>
</svg>
