<svg width="50" height="50" viewBox="0 0 50 50" fill="none" xmlns="http://www.w3.org/2000/svg">
<g clip-path="url(#clip0_1653_165)">
<path d="M42 0H8C3.58172 0 0 3.58172 0 8V42C0 46.4183 3.58172 50 8 50H42C46.4183 50 50 46.4183 50 42V8C50 3.58172 46.4183 0 42 0Z" fill="#F7D6D7"/>
<path fill-rule="evenodd" clip-rule="evenodd" d="M11.1351 11.1778C10.6732 11.6612 11.0937 12.7286 17.3118 26.8623C19.2434 31.253 21.1494 35.6396 21.5475 36.6102C22.4265 38.7546 22.555 39 22.7981 39C22.9828 39 25.135 36.5606 34.3607 25.8941C39.0451 20.4782 39.1402 20.3535 38.9469 19.8831C38.8054 19.5387 33.9795 15.1243 33.4729 14.876C33.1119 14.699 17.2283 11.8791 11.6958 11.0098C11.4719 10.9747 11.2719 11.0346 11.1351 11.1778ZM23.2903 14.6414C27.5894 15.3897 31.1027 16.0306 31.0978 16.0659C31.0509 16.4004 24.9867 20.9369 24.795 20.7809C24.6748 20.6832 22.4542 18.9593 19.8603 16.9502C15.437 13.5242 14.8932 13.0789 15.3089 13.2235C15.3997 13.2551 18.9912 13.8931 23.2903 14.6414ZM19.0996 18.2386C21.7492 20.3607 23.9867 22.1604 24.0721 22.2377C24.1906 22.3453 24.0493 23.8217 23.4726 28.5008C23.0577 31.8681 22.682 34.5675 22.6378 34.4996C22.5303 34.3343 13.8247 14.1859 13.8247 14.1024C13.8247 14.0119 13.7242 13.9331 19.0996 18.2386ZM34.712 18.1893C35.6222 18.9785 36.3541 19.6363 36.3385 19.6511C36.2739 19.7124 27.5001 21.1978 27.3987 21.1647C27.2734 21.1238 32.842 16.6938 32.9725 16.7306C33.0191 16.7439 33.8018 17.4002 34.712 18.1893ZM35.988 21.382C35.988 21.4765 24.4884 34.585 24.4458 34.5391C24.4135 34.5042 25.7645 23.5417 25.8577 23.0837C25.8958 22.8961 27.1964 22.6689 35.8891 21.3314C35.9434 21.323 35.988 21.3458 35.988 21.382Z" fill="#FF060A"/>
</g>
<defs>
<clipPath id="clip0_1653_165">
<rect width="50" height="50" fill="white"/>
</clipPath>
</defs>
</svg>
