<svg width="26" height="16" viewBox="0 0 26 16" fill="none" xmlns="http://www.w3.org/2000/svg">
<g clip-path="url(#clip0_233_2008)">
<path d="M5.28099 0H11.5215C12.393 0 12.9345 0.726707 12.7307 1.61992L9.82562 14.3816C9.62029 15.2733 8.74878 16 7.87727 16H1.63678C0.766789 16 0.223807 15.2733 0.427615 14.3816L3.33417 1.61992C3.53798 0.725151 4.40949 0 5.28099 0Z" fill="#E31937"/>
<path d="M11.0016 0H18.1775C19.049 0 18.6551 0.726707 18.4513 1.61992L15.5463 14.3816C15.3424 15.2733 15.4063 16 14.5333 16H7.35741C6.48438 16 5.94444 15.2733 6.14977 14.3816L9.0548 1.61992C9.26165 0.725151 10.1301 0 11.0016 0Z" fill="#00447C"/>
<path d="M17.8929 0H24.1334C25.0049 0 25.5479 0.726707 25.3426 1.61992L22.4375 14.3816C22.2322 15.2733 21.3592 16 20.4877 16H14.2502C13.3772 16 12.8357 15.2733 13.041 14.3816L15.9461 1.61992C16.1499 0.725151 17.0199 0 17.8929 0Z" fill="#007B85"/>
<path fill-rule="evenodd" clip-rule="evenodd" d="M16.8512 12.0039H17.4398L17.6086 11.4266H17.0215L16.8512 12.0039ZM17.3211 10.4058L17.1189 11.0905C17.1189 11.0905 17.3424 10.9738 17.4626 10.9364C17.5843 10.9084 17.7683 10.8851 17.7683 10.8851L17.9113 10.4058H17.3227M17.6147 9.42233L17.4185 10.0806C17.4185 10.0806 17.639 9.97942 17.7561 9.94519C17.8778 9.91251 18.0588 9.90161 18.0588 9.90161L18.2003 9.42233H17.6132M18.9151 9.42233L18.1546 11.9977H18.36L18.2003 12.5299H17.9964L17.9478 12.6933H17.2238L17.2725 12.5299H15.8032L15.9492 12.0382H16.0983L16.8694 9.42389L17.023 8.89636H17.7607L17.6831 9.16246C17.6831 9.16246 17.8793 9.01774 18.0664 8.96794C18.252 8.91815 19.3227 8.89947 19.3227 8.89947L19.1645 9.42389H18.9121" fill="white"/>
<path d="M19.2422 8.89783H20.0316L20.0392 9.19816C20.0331 9.24951 20.0772 9.27285 20.1685 9.27285H20.3282L20.1821 9.76925H19.7563C19.3882 9.79571 19.2483 9.63387 19.2574 9.45181L19.2422 8.89783Z" fill="white"/>
<path d="M19.3455 11.2508H18.5942L18.7235 10.8088H19.5828L19.7045 10.4058H18.8573L19.0018 9.90784H21.3608L21.2148 10.4058H20.4239L20.3007 10.8088H21.0946L20.9623 11.2508H20.1045L19.9524 11.4375H20.3007L20.3859 11.993C20.395 12.0491 20.395 12.0848 20.4132 12.1082C20.4315 12.1269 20.5349 12.1378 20.5958 12.1378H20.7022L20.541 12.6793H20.2733C20.2322 12.6793 20.1699 12.6762 20.0847 12.6731C20.0056 12.6653 19.9493 12.617 19.8946 12.589C19.8459 12.5657 19.7729 12.505 19.7547 12.4007L19.671 11.8452L19.2801 12.3914C19.1569 12.5641 18.9896 12.6964 18.7052 12.6964H18.1592L18.3022 12.2124H18.5105C18.5714 12.2124 18.6231 12.1875 18.6626 12.1673C18.7022 12.1502 18.7387 12.1284 18.7782 12.0693L19.347 11.2492L19.3455 11.2508Z" fill="white"/>
<path d="M11.1187 10.0416H13.1096L12.9621 10.5271H12.1666L12.0419 10.9411H12.8556L12.7066 11.4421H11.8929L11.6951 12.1159C11.6708 12.1906 11.8883 12.2 11.9674 12.2L12.3735 12.1424L12.2108 12.6979H11.2936C11.2191 12.6979 11.1643 12.687 11.0852 12.6684C11.0077 12.6481 10.9742 12.6123 10.9392 12.5594C10.9058 12.505 10.8541 12.4598 10.889 12.3416L11.1522 11.4499H10.7004L10.851 10.9411H11.3043L11.4244 10.5271H10.9727L11.1172 10.0416H11.1187Z" fill="white"/>
<path d="M12.457 9.16859H13.2737L13.1262 9.67588H12.0113L11.8912 9.78326C11.8395 9.83461 11.8212 9.81438 11.7528 9.85017C11.6904 9.88285 11.5581 9.94665 11.3862 9.94665H11.0288L11.1733 9.45958H11.2813C11.371 9.45958 11.4334 9.4518 11.4653 9.43157C11.5003 9.40823 11.5414 9.35688 11.5855 9.27285L11.7923 8.8916H12.603L12.46 9.16859H12.457Z" fill="white"/>
<path fill-rule="evenodd" clip-rule="evenodd" d="M14.0222 10.0043C14.0222 10.0043 14.2442 9.79577 14.626 9.72885C14.7127 9.71174 15.2542 9.71796 15.2542 9.71796L15.3363 9.43786H14.188L14.0222 10.0043ZM15.1005 10.2159H13.9613L13.8914 10.4509H14.877C14.9925 10.4369 15.0169 10.454 15.0275 10.4478L15.1005 10.2159ZM13.6237 8.89789H14.3188L14.2169 9.25579C14.2169 9.25579 14.4374 9.07529 14.591 9.01148C14.7431 8.95391 15.0899 8.901 15.0899 8.901L16.2154 8.89478L15.8321 10.2004C15.7667 10.4229 15.6922 10.5676 15.645 10.6345C15.6025 10.7014 15.5523 10.759 15.4549 10.8135C15.3606 10.8664 15.2739 10.8944 15.1948 10.9037C15.1203 10.9099 15.0062 10.9115 14.8481 10.9131H13.7636L13.4594 11.9448C13.4305 12.0475 13.4168 12.0973 13.4351 12.1253C13.4503 12.1486 13.4868 12.1766 13.5385 12.1766L14.0161 12.1299L13.8518 12.6964H13.318C13.1476 12.6964 13.0244 12.6917 12.9377 12.6855C12.8556 12.6777 12.7689 12.6855 12.7111 12.6404C12.6624 12.5952 12.5864 12.5361 12.5879 12.4754C12.594 12.4194 12.6168 12.326 12.6503 12.1984L13.6237 8.89633" fill="white"/>
<path d="M15.6511 11.0049L15.5856 11.3192C15.5583 11.4173 15.5339 11.4904 15.4625 11.5542C15.3864 11.6211 15.2967 11.6896 15.0883 11.6896L14.702 11.7067L14.6989 12.0615C14.6944 12.1611 14.7202 12.1517 14.737 12.1673C14.7552 12.186 14.7704 12.1922 14.7871 12.2L14.9088 12.1922L15.2769 12.172L15.1248 12.6886H14.702C14.4054 12.6886 14.1864 12.6808 14.1149 12.6232C14.0434 12.5766 14.0343 12.519 14.0358 12.4194L14.0632 11.0376H14.7385L14.7293 11.3208H14.8921C14.9484 11.3208 14.9849 11.3146 15.0092 11.3005C15.0305 11.285 15.0442 11.2632 15.0548 11.229L15.1233 11.008H15.6541L15.6511 11.0049Z" fill="white"/>
<path d="M6.01881 4.0755C5.996 4.1891 5.56253 6.23228 5.561 6.23384C5.46823 6.64776 5.39978 6.94187 5.17012 7.13172C5.03932 7.2422 4.88722 7.29511 4.70927 7.29511C4.42485 7.29511 4.25906 7.15039 4.23169 6.87651L4.2256 6.78159C4.2256 6.78159 4.3123 6.22761 4.3123 6.2245C4.3123 6.2245 4.76706 4.36183 4.84767 4.11596C4.85224 4.10195 4.85376 4.09417 4.85376 4.08795C3.96856 4.09573 3.8119 4.08795 3.80125 4.07394C3.79517 4.09417 3.77388 4.20933 3.77388 4.20933L3.30998 6.30853L3.27044 6.48593L3.19287 7.06791C3.19287 7.24064 3.22633 7.38225 3.29173 7.50051C3.50315 7.87865 4.10697 7.93467 4.44766 7.93467C4.88722 7.93467 5.2994 7.83975 5.57773 7.66546C6.0614 7.37291 6.18764 6.91542 6.30019 6.50927L6.3519 6.30075C6.3519 6.30075 6.82036 4.36649 6.89945 4.1144C6.90249 4.1004 6.90401 4.09262 6.90705 4.08639C6.26521 4.09262 6.07661 4.08639 6.01577 4.07239L6.01881 4.0755Z" fill="white"/>
<path d="M8.60914 7.9175C8.29583 7.91127 8.1848 7.91127 7.81824 7.9315L7.80456 7.90349C7.8365 7.76033 7.86996 7.62028 7.9019 7.47556L7.94753 7.27949C8.01597 6.97605 8.08137 6.62281 8.08898 6.51544C8.09658 6.45163 8.11787 6.2898 7.93688 6.2898C7.86083 6.2898 7.78174 6.32715 7.70113 6.36605C7.65702 6.52788 7.56881 6.98227 7.5247 7.18923C7.43344 7.62495 7.42888 7.67474 7.38781 7.89104L7.36196 7.92061C7.03951 7.91439 6.92544 7.91439 6.55433 7.93461L6.5376 7.90194C6.59996 7.64362 6.6608 7.38219 6.72011 7.12388C6.87677 6.42051 6.91327 6.15286 6.95586 5.79495L6.98628 5.77472C7.34979 5.72182 7.43648 5.71092 7.83041 5.63L7.86387 5.66735L7.80304 5.89143C7.86996 5.85097 7.93384 5.81051 8.00076 5.77472C8.18632 5.68136 8.39165 5.65335 8.50572 5.65335C8.67911 5.65335 8.86619 5.70314 8.94528 5.90544C9.0198 6.0875 8.96961 6.31003 8.87227 6.75041L8.82208 6.97605C8.72169 7.46467 8.70496 7.55492 8.64869 7.89104L8.61219 7.92061L8.60914 7.9175Z" fill="white"/>
<path d="M9.88522 7.91749C9.6951 7.91749 9.57342 7.91127 9.45479 7.91749C9.33615 7.91749 9.22056 7.92527 9.04565 7.93305L9.03653 7.91749L9.02588 7.90038C9.07455 7.7152 9.10041 7.64984 9.12322 7.58448C9.14756 7.51757 9.16885 7.45221 9.21296 7.26392C9.26771 7.01806 9.30269 6.84688 9.32399 6.69594C9.34984 6.54966 9.36353 6.42673 9.3833 6.28201L9.39699 6.27112L9.4122 6.25711C9.6008 6.23066 9.71944 6.21199 9.84263 6.19176C9.96583 6.17464 10.0905 6.14974 10.2852 6.11084L10.2928 6.12796L10.2989 6.14663C10.2639 6.29913 10.2259 6.45007 10.1909 6.60569C10.156 6.7613 10.1194 6.91224 10.086 7.06474C10.016 7.38841 9.98712 7.50979 9.97039 7.59693C9.95366 7.67785 9.9491 7.72298 9.92172 7.89104L9.90347 7.9066L9.88674 7.9206L9.88522 7.91749Z" fill="white"/>
<path d="M11.8806 6.77537C11.8654 6.8594 11.7939 7.16752 11.6981 7.29979C11.6312 7.39627 11.5521 7.4554 11.4639 7.4554C11.438 7.4554 11.2813 7.4554 11.2798 7.21887C11.2798 7.10216 11.3011 6.98234 11.33 6.85318C11.4121 6.47971 11.5095 6.16538 11.7589 6.16538C11.9536 6.16538 11.9673 6.39879 11.8806 6.77382V6.77537ZM12.7034 6.81116C12.8129 6.31788 12.7278 6.08757 12.6198 5.94752C12.457 5.73433 12.1681 5.66431 11.8684 5.66431C11.689 5.66431 11.26 5.68298 10.9239 5.99887C10.6836 6.22606 10.5726 6.53573 10.5057 6.83295C10.4372 7.13484 10.3596 7.67948 10.8494 7.88177C11 7.94869 11.2175 7.9658 11.3574 7.9658C11.7163 7.9658 12.0829 7.86466 12.3597 7.56588C12.5726 7.32313 12.67 6.96055 12.7034 6.81272" fill="white"/>
<path d="M20.3767 7.95019C19.998 7.94707 19.8884 7.94707 19.5386 7.96263L19.5173 7.93307C19.6116 7.56427 19.7075 7.19703 19.7911 6.82511C19.9006 6.34116 19.9265 6.13575 19.9615 5.8541L19.9904 5.83075C20.3675 5.77629 20.471 5.76073 20.8634 5.68604L20.874 5.71871C20.8025 6.02216 20.7326 6.32404 20.6626 6.6306C20.5181 7.26705 20.4664 7.59072 20.4117 7.92373L20.3767 7.95019Z" fill="white"/>
<path d="M19.8078 6.81894C19.7896 6.89986 19.7166 7.21109 19.6207 7.3418C19.5569 7.43517 19.4032 7.49274 19.3166 7.49274C19.2922 7.49274 19.1371 7.49274 19.1325 7.26088C19.1325 7.14573 19.1538 7.02591 19.1842 6.89519C19.2679 6.52795 19.3637 6.21673 19.6131 6.21673C19.8093 6.21673 19.893 6.44236 19.8093 6.81894H19.8078ZM20.5561 6.85473C20.6656 6.36456 20.2215 6.81116 20.1516 6.64933C20.0436 6.39724 20.1105 5.88527 19.6755 5.71254C19.5082 5.64563 19.1143 5.73122 18.7766 6.04711C18.5393 6.27275 18.4253 6.58086 18.3599 6.87496C18.2914 7.17218 18.2139 7.71682 18.699 7.91134C18.8542 7.97825 18.9926 7.99848 19.134 7.99226C19.6223 7.9658 19.9949 7.20953 20.2717 6.91076C20.4846 6.67423 20.5212 6.99945 20.5546 6.85473" fill="white"/>
<path d="M14.8466 7.9175C14.5318 7.91127 14.4238 7.91127 14.0557 7.9315L14.042 7.90349C14.074 7.76033 14.109 7.62028 14.1424 7.47556L14.185 7.27949C14.2535 6.97605 14.3204 6.62281 14.3265 6.51544C14.3341 6.45163 14.3554 6.2898 14.1759 6.2898C14.0968 6.2898 14.0192 6.32715 13.9386 6.36605C13.896 6.52788 13.8048 6.98227 13.7607 7.18923C13.6725 7.62495 13.6664 7.67474 13.6268 7.89104L13.5994 7.92061C13.277 7.91439 13.166 7.91439 12.7933 7.93461L12.7766 7.90194C12.839 7.64362 12.8998 7.38219 12.9591 7.12388C13.1158 6.42051 13.1508 6.15286 13.1949 5.79495L13.2223 5.77472C13.5842 5.72182 13.674 5.71092 14.0664 5.63L14.0968 5.66735L14.0405 5.89143C14.1059 5.85097 14.1713 5.81051 14.2367 5.77472C14.4208 5.68136 14.6276 5.65335 14.7417 5.65335C14.912 5.65335 15.1022 5.70314 15.1828 5.90544C15.2558 6.0875 15.2056 6.31003 15.1067 6.75041L15.058 6.97605C14.9546 7.46467 14.9394 7.55492 14.8847 7.89104L14.8466 7.92061V7.9175Z" fill="white"/>
<path d="M17.5661 4.07242L17.3045 4.07553C16.6262 4.08331 16.3539 4.08175 16.2429 4.06775C16.2338 4.11754 16.2155 4.2078 16.2155 4.2078C16.2155 4.2078 15.9722 5.36088 15.9722 5.36244C15.9722 5.36244 15.3911 7.81332 15.3638 7.92848C15.9554 7.9207 16.1988 7.9207 16.3007 7.93314C16.3235 7.81799 16.4604 7.1333 16.4619 7.1333C16.4619 7.1333 16.579 6.63067 16.5866 6.61356C16.5866 6.61356 16.6231 6.56065 16.6596 6.54042H16.7144C17.2254 6.54042 17.8019 6.54042 18.2536 6.19963C18.5608 5.96621 18.7722 5.62231 18.865 5.20216C18.8894 5.09945 18.9076 4.97652 18.9076 4.85514C18.9076 4.69486 18.8757 4.53614 18.7859 4.41165C18.5547 4.08175 18.0954 4.07553 17.5661 4.07242ZM17.9053 5.27218C17.8505 5.52739 17.6878 5.74369 17.4794 5.84795C17.3076 5.93665 17.0977 5.94287 16.8802 5.94287H16.7402L16.7509 5.88529C16.7509 5.88529 17.0094 4.73532 17.0079 4.73999L17.0155 4.68086L17.0186 4.63573L17.122 4.64662C17.122 4.64662 17.6543 4.69331 17.668 4.69486C17.8779 4.77889 17.9646 4.99208 17.9038 5.27218" fill="white"/>
<path d="M23.4763 5.68298L23.4459 5.64719C23.0581 5.7281 22.9881 5.74055 22.6322 5.78879L22.6063 5.81525C22.6063 5.81525 22.6033 5.82614 22.6018 5.83236V5.82614C22.3356 6.4517 22.3432 6.31632 22.1272 6.80961C22.1272 6.78782 22.1272 6.77382 22.1242 6.74892L22.0694 5.68142L22.036 5.64563C21.6299 5.72655 21.6208 5.739 21.2451 5.78724L21.2162 5.81369C21.2116 5.82614 21.2116 5.84014 21.2101 5.85571L21.2131 5.86193C21.2603 6.10624 21.2481 6.05178 21.2953 6.43925C21.3166 6.6291 21.347 6.8205 21.3683 7.00723C21.4048 7.32157 21.4261 7.47562 21.4717 7.95335C21.2192 8.38128 21.1584 8.54312 20.915 8.91815L20.9302 8.95394C21.2953 8.93993 21.3805 8.93993 21.6512 8.93993L21.7105 8.87146C21.9158 8.42019 23.4748 5.68298 23.4748 5.68298H23.4763Z" fill="white"/>
<path d="M10.2273 5.94596C10.4357 5.79813 10.4615 5.59428 10.2866 5.48846C10.1102 5.38109 9.79841 5.41532 9.59003 5.56315C9.38166 5.70787 9.35733 5.91328 9.53376 6.02221C9.70715 6.12647 10.0205 6.09535 10.2273 5.94596Z" fill="white"/>
<path d="M21.6848 8.90881L21.3806 9.44256C21.2848 9.62618 21.1053 9.76157 20.8209 9.76312L20.3357 9.75534L20.4771 9.2745H20.5714C20.6201 9.2745 20.6566 9.27139 20.684 9.25738C20.7083 9.2496 20.7266 9.22937 20.7464 9.19981L20.9258 8.90881H21.6833H21.6848Z" fill="white"/>
</g>
<defs>
<clipPath id="clip0_233_2008">
<rect width="25" height="16" fill="white" transform="translate(0.385254)"/>
</clipPath>
</defs>
</svg>
