<svg width="48" height="48" viewBox="0 0 48 48" fill="none" xmlns="http://www.w3.org/2000/svg"><g clip-path="url(#clip0_19_9)"><g filter="url(#filter0_i_19_9)"><path d="M23.5819 48C36.5134 48 46.9965 37.2548 46.9965 24C46.9965 10.7452 36.5134 0 23.5819 0C10.6503 0 0.167236 10.7452 0.167236 24C0.167236 37.2548 10.6503 48 23.5819 48Z" fill="#98A2B3"></path><rect width="48" height="48" rx="8" fill="#98A2B3"></rect><path d="M29.7349 27.2772C29.7349 23.9797 27.8152 22.8492 23.9758 22.3781C21.2334 22.0012 20.685 21.2475 20.685 19.9282C20.685 18.6091 21.5991 17.7614 23.4274 17.7614C25.0728 17.7614 25.9871 18.3266 26.444 19.7399C26.5354 20.0226 26.8097 20.2109 27.0839 20.2109H28.5464C28.9121 20.2109 29.1864 19.9282 29.1864 19.5515V19.4573C28.8206 17.3843 27.1753 15.7827 25.0728 15.5944V13.3332C25.0728 12.9561 24.7986 12.6736 24.3415 12.5792H22.9704C22.6047 12.5792 22.3304 12.8619 22.239 13.3332V15.5C19.4966 15.8771 17.7599 17.7614 17.7599 20.1168C17.7599 23.2261 19.588 24.4507 23.4274 24.9219C25.9871 25.3931 26.8097 25.9583 26.8097 27.4658C26.8097 28.9734 25.5299 30.0097 23.7932 30.0097C21.4162 30.0097 20.5936 28.9733 20.3193 27.5599C20.228 27.1832 19.9537 26.9946 19.6795 26.9946H18.1254C17.7599 26.9946 17.4856 27.2772 17.4856 27.6543V27.7485C17.8512 30.1038 19.3138 31.7998 22.3304 32.2709V34.5322C22.3304 34.9089 22.6047 35.1916 23.0617 35.286H24.4328C24.7986 35.286 25.0728 35.0033 25.1643 34.5322V32.2709C27.9067 31.7998 29.7349 29.8211 29.7349 27.2772Z" fill="white"></path></g></g><defs><filter id="filter0_i_19_9" x="0" y="0" width="48" height="48.6799" filterUnits="userSpaceOnUse" color-interpolation-filters="sRGB"><feFlood flood-opacity="0" result="BackgroundImageFix"></feFlood><feBlend mode="normal" in="SourceGraphic" in2="BackgroundImageFix" result="shape"></feBlend><feColorMatrix in="SourceAlpha" type="matrix" values="0 0 0 0 0 0 0 0 0 0 0 0 0 0 0 0 0 0 127 0" result="hardAlpha"></feColorMatrix><feOffset dy="0.679887"></feOffset><feGaussianBlur stdDeviation="1.1898"></feGaussianBlur><feComposite in2="hardAlpha" operator="arithmetic" k2="-1" k3="1"></feComposite><feColorMatrix type="matrix" values="0 0 0 0 0.996078 0 0 0 0 0.921569 0 0 0 0 0.866667 0 0 0 1 0"></feColorMatrix><feBlend mode="normal" in2="shape" result="effect1_innerShadow_19_9"></feBlend></filter><clipPath id="clip0_19_9"><rect width="48" height="48" fill="white"></rect></clipPath></defs></svg>
