<svg xmlns="http://www.w3.org/2000/svg" viewBox="0 0 1500 1500">
  <defs>
    <style>.cls-1{fill:#2775ca;}.cls-2{fill:#fff;}</style>
  </defs>
  <rect class="cls-1" width="1500" height="1500" />
  <path class="cls-2"
    d="M937.76,849.52c0-99.64-59.76-133.71-179.28-148-85.36-11.39-102.43-34.17-102.43-74s28.45-65.47,85.36-65.47c51.23,0,79.68,17,93.91,59.82a21.45,21.45,0,0,0,19.92,14.23h45.5a19.92,19.92,0,0,0,19.92-19.92h0v-.07h0a27.46,27.46,0,0,0-.53-5.65A142.15,142.15,0,0,0,792.58,496.62V428.33c0-8.52-4.81-15.48-13.21-19.59A32.47,32.47,0,0,0,765,405.59H727.18c-8.52,0-15.47,4.79-19.59,13.21a32.31,32.31,0,0,0-3.16,14.34v60.67C619.09,505.23,565,562.13,565,633.27c0,93.92,56.91,130.94,176.43,145.14,79.68,14.22,105.29,31.29,105.29,76.83s-39.84,76.83-93.91,76.83c-74,0-99.61-31.3-108.16-74-2.82-11.4-11.33-17.11-19.91-17.11l-50.56.13c-11,0-17.73,7.9-17.73,19.8v2.85c11.37,71.12,56.9,122.36,150.81,136.58v68.29c0,11.07,8.15,19.52,21.77,22.58a9.66,9.66,0,0,0,2,.21h41.67c10.31,0,15.48-4.81,19.59-13.21a32.62,32.62,0,0,0,3.16-14.34v-63.48c85.36-14.23,142.28-74,142.28-150.82Z" />
  <path class="cls-2"
    d="M618.06,1162.39a39.74,39.74,0,0,0-20.21-16.65c-217.36-82.3-328-327-246.3-543.79,42.68-119.52,136.58-210.58,253.26-253.26,11.38-5.65,17-14.24,17-28.47V280.39c0-9.1-3.63-16.37-10.9-20.38a18.38,18.38,0,0,0-11.86-2,15.63,15.63,0,0,0-2.79.71c-5.64,2.1-6.43,2.47-16.94,6.42C320.46,362.53,176.53,638,260.46,903.59c50.79,157.91,171.38,279.5,328.63,331.53,2.26.73,4.39,1.57,6.58,2.39,9.77,3.62,19.18-.93,22.57-10,.6-1.57,1.14-2.6,1.83-4.18,1.34-3,1.71-4.94,1.71-9.56v-39.83C621.89,1170.37,620.41,1166.32,618.06,1162.39Zm288.4-901.92c-10.16-5.11-20-.6-24.63,8.15a34.72,34.72,0,0,0-2.34,4.93c-1,2.6-1.49,5.11-1.49,9.69v39.85c0,8.06,4.26,16.13,9.84,22.14a31.79,31.79,0,0,0,12.42,8.18c218.54,81.64,330,327,248.07,544.46-42.68,119.52-136.58,210.58-253.26,253.26-11.38,5.65-17,14.22-17,28.46v39.84c0,9.09,3.62,16.37,10.88,20.38a18.43,18.43,0,0,0,11.92,2,20.17,20.17,0,0,0,3.41-1c7-2.47,4.51-1.91,8.15-3.16,265-91.56,411.75-373.25,327-641.45-51.23-162.2-176.44-284.57-333-335.8Z" />
</svg>