<svg width="50" height="50" viewBox="0 0 50 50" fill="none" xmlns="http://www.w3.org/2000/svg">
<g clip-path="url(#clip0_1653_148)">
<path d="M42 0H8C3.58172 0 0 3.58172 0 8V42C0 46.4183 3.58172 50 8 50H42C46.4183 50 50 46.4183 50 42V8C50 3.58172 46.4183 0 42 0Z" fill="#D6F1E8"/>
<path fill-rule="evenodd" clip-rule="evenodd" d="M27.5586 25.9672C27.3985 25.9791 26.5714 26.0281 24.7265 26.0281C23.2592 26.0281 22.2173 25.9844 21.8518 25.9672C16.1811 25.7195 11.9483 24.7397 11.9483 23.5666C11.9483 22.3934 16.1811 21.4149 21.8518 21.1633V24.9913C22.2227 25.0178 23.2845 25.08 24.7519 25.08C26.5127 25.08 27.3945 25.0072 27.5533 24.9926V21.166C33.212 21.4162 37.4354 22.3961 37.4354 23.5666C37.4354 24.7371 33.2133 25.7169 27.5533 25.9658H27.5586V25.9672ZM27.5586 20.7701V17.3447H35.4558V12.1211H13.9546V17.3447H21.8505V20.7688C15.4327 21.0614 10.6064 22.3232 10.6064 23.8354C10.6064 25.3475 15.4327 26.608 21.8505 26.902V37.8787H27.5573V26.898C33.9604 26.6054 38.7787 25.3448 38.7787 23.834C38.7787 22.3232 33.9644 21.0627 27.5573 20.7688H27.5586V20.7701Z" fill="#50AF95"/>
<path fill-rule="evenodd" clip-rule="evenodd" d="M39.1414 36.802C38.1504 37.7931 37.3396 38.6297 37.3396 38.6609C37.3396 38.7349 38.587 39.9811 38.661 39.9811C38.6921 39.9811 39.2182 39.4802 39.8302 38.8679C40.4422 38.2557 40.9686 37.7547 41 37.7547C41.0314 37.7547 41.5578 38.2557 42.1698 38.8679C42.7818 39.4802 43.3083 39.9811 43.3398 39.9811C43.4139 39.9811 44.6604 38.734 44.6604 38.6598C44.6604 38.586 41.0735 35 40.9997 35C40.9686 35 40.1323 35.8109 39.1414 36.802ZM35.6317 40.3117C35.2843 40.6596 35 40.9697 35 41.0008C35 41.0747 36.2476 42.3208 36.3216 42.3208C36.3954 42.3208 37.6415 41.0731 37.6415 40.9992C37.6415 40.9253 36.3939 39.6792 36.3199 39.6792C36.2888 39.6792 35.9791 39.9638 35.6317 40.3117ZM40.3109 40.3117C39.9635 40.6596 39.6792 40.9697 39.6792 41.0008C39.6792 41.0747 40.9269 42.3208 41.0008 42.3208C41.0747 42.3208 42.3208 41.0731 42.3208 40.9992C42.3208 40.9253 41.0731 39.6792 40.9992 39.6792C40.968 39.6792 40.6583 39.9638 40.3109 40.3117ZM44.9902 40.3117C44.6428 40.6596 44.3585 40.9697 44.3585 41.0008C44.3585 41.0747 45.6061 42.3208 45.6801 42.3208C45.7539 42.3208 47 41.0731 47 40.9992C47 40.9253 45.7524 39.6792 45.6784 39.6792C45.6473 39.6792 45.3375 39.9638 44.9902 40.3117ZM37.9713 42.6514C37.6239 42.9992 37.3396 43.3092 37.3396 43.3402C37.3396 43.414 40.9265 47 41.0003 47C41.0745 47 44.6604 43.4132 44.6604 43.3391C44.6604 43.2651 43.413 42.0189 43.339 42.0189C43.3079 42.0189 42.7818 42.5198 42.1698 43.1321C41.5578 43.7443 41.0314 44.2453 41 44.2453C40.9686 44.2453 40.4422 43.7443 39.8302 43.1321C39.2182 42.5198 38.6917 42.0189 38.6602 42.0189C38.6287 42.0189 38.3187 42.3035 37.9713 42.6514Z" fill="#F3BA2F"/>
</g>
<defs>
<clipPath id="clip0_1653_148">
<rect width="50" height="50" fill="white"/>
</clipPath>
</defs>
</svg>
