<svg width="50" height="50" viewBox="0 0 50 50" fill="none" xmlns="http://www.w3.org/2000/svg">
<g clip-path="url(#clip0_1652_154)">
<path d="M42 0H8C3.58172 0 0 3.58172 0 8V42C0 46.4183 3.58172 50 8 50H42C46.4183 50 50 46.4183 50 42V8C50 3.58172 46.4183 0 42 0Z" fill="#D6F1E8"/>
<path fill-rule="evenodd" clip-rule="evenodd" d="M27.5586 25.9672C27.3985 25.9791 26.5714 26.0281 24.7265 26.0281C23.2592 26.0281 22.2173 25.9844 21.8518 25.9672C16.1811 25.7195 11.9483 24.7397 11.9483 23.5666C11.9483 22.3934 16.1811 21.4149 21.8518 21.1633V24.9913C22.2227 25.0178 23.2845 25.08 24.7519 25.08C26.5127 25.08 27.3945 25.0072 27.5533 24.9926V21.166C33.212 21.4162 37.4354 22.3961 37.4354 23.5666C37.4354 24.7371 33.2133 25.7169 27.5533 25.9658H27.5586V25.9672ZM27.5586 20.7701V17.3447H35.4558V12.1211H13.9546V17.3447H21.8505V20.7688C15.4327 21.0614 10.6064 22.3232 10.6064 23.8354C10.6064 25.3475 15.4327 26.608 21.8505 26.902V37.8787H27.5573V26.898C33.9604 26.6054 38.7787 25.3448 38.7787 23.834C38.7787 22.3232 33.9644 21.0627 27.5573 20.7688H27.5586V20.7701Z" fill="#50AF95"/>
<path fill-rule="evenodd" clip-rule="evenodd" d="M34.0579 35.0762C33.8599 35.2834 34.0401 35.7408 36.705 41.7981C37.5329 43.6798 38.3498 45.5598 38.5203 45.9758C38.8971 46.8948 38.9521 47 39.0563 47C39.1355 47 40.0579 45.9546 44.0117 41.3832C46.0193 39.0621 46.0601 39.0086 45.9773 38.807C45.9166 38.6594 43.8483 36.7676 43.6312 36.6611C43.4765 36.5853 36.6693 35.3768 34.2982 35.0042C34.2022 34.9892 34.1165 35.0148 34.0579 35.0762ZM39.2673 36.5606C41.1098 36.8813 42.6155 37.156 42.6134 37.1711C42.5932 37.3145 39.9943 39.2587 39.9122 39.1918C39.8606 39.1499 38.9089 38.4111 37.7973 37.5501C35.9016 36.0818 35.6685 35.891 35.8467 35.9529C35.8856 35.9665 37.4248 36.2399 39.2673 36.5606ZM37.4713 38.1022C38.6068 39.0117 39.5657 39.783 39.6023 39.8162C39.6531 39.8623 39.5925 40.495 39.3454 42.5003C39.1676 43.9435 39.0066 45.1004 38.9876 45.0712C38.9416 45.0004 35.2106 36.3654 35.2106 36.3296C35.2106 36.2908 35.1675 36.257 37.4713 38.1022ZM44.1623 38.0811C44.5524 38.4194 44.866 38.7013 44.8594 38.7076C44.8317 38.7339 41.0715 39.3705 41.028 39.3563C40.9743 39.3388 43.3609 37.4402 43.4168 37.456C43.4367 37.4617 43.7722 37.743 44.1623 38.0811ZM44.7091 39.4494C44.7091 39.4899 39.7808 45.1079 39.7625 45.0882C39.7486 45.0732 40.3277 40.375 40.3676 40.1787C40.3839 40.0983 40.9413 40.001 44.6667 39.4278C44.69 39.4242 44.7091 39.4339 44.7091 39.4494Z" fill="#FF060A"/>
</g>
<defs>
<clipPath id="clip0_1652_154">
<rect width="50" height="50" fill="white"/>
</clipPath>
</defs>
</svg>
