<svg width="50" height="50" viewBox="0 0 50 50" fill="none" xmlns="http://www.w3.org/2000/svg">
<rect width="50" height="50" rx="8" fill="#D6F1E8"/>
<path fill-rule="evenodd" clip-rule="evenodd" d="M27.5582 25.9673C27.3981 25.9792 26.571 26.0282 24.7261 26.0282C23.2588 26.0282 22.2169 25.9845 21.8514 25.9673C16.1807 25.7196 11.9479 24.7398 11.9479 23.5667C11.9479 22.3935 16.1807 21.415 21.8514 21.1634V24.9914C22.2223 25.0179 23.2841 25.0801 24.7515 25.0801C26.5123 25.0801 27.3941 25.0073 27.5529 24.9927V21.1661C33.2116 21.4163 37.435 22.3962 37.435 23.5667C37.435 24.7372 33.2129 25.717 27.5529 25.9659H27.5582V25.9673ZM27.5582 20.7702V17.3448H35.4554V12.1212H13.9542V17.3448H21.8501V20.7689C15.4323 21.0615 10.606 22.3233 10.606 23.8355C10.606 25.3476 15.4323 26.6081 21.8501 26.9021V37.8788H27.5569V26.8981C33.96 26.6055 38.7783 25.3449 38.7783 23.8341C38.7783 22.3233 33.964 21.0628 27.5569 20.7689H27.5582V20.7702Z" fill="#50AF95"/>
</svg>
