<svg width="37" height="12" viewBox="0 0 37 12" fill="none" xmlns="http://www.w3.org/2000/svg">
<path d="M16.0337 11.7985H13.0166L14.9019 0.207764H17.9189L16.0337 11.7985Z" fill="#1B38C3"/>
<path d="M10.4775 0.207764L7.6 8.17986L7.25891 6.46203L6.24496 1.25273C6.24496 1.25273 6.12093 0.207764 4.8124 0.207764H0.0558139L0 0.403113C0 0.403113 1.45426 0.706989 3.15659 1.72714L5.77984 11.7985H8.92403L13.724 0.207764H10.4775Z" fill="#1B38C3"/>
<path d="M34.214 11.7985H36.9861L34.5706 0.207764H32.1427C31.0233 0.207764 30.7504 1.07288 30.7504 1.07288L26.2512 11.8016H29.3954L30.0249 10.0806H33.8605L34.214 11.7985ZM30.8931 7.69923L32.4776 3.36125L33.3706 7.69923H30.8931Z" fill="#1B38C3"/>
<path d="M26.4863 2.99535L26.9173 0.505426C26.9173 0.505426 25.5871 0 24.2041 0C22.7064 0 19.1499 0.654263 19.1499 3.83876C19.1499 6.83411 23.3235 6.87132 23.3235 8.44341C23.3235 10.0155 19.5809 9.73643 18.3437 8.74419L17.894 11.3457C17.894 11.3457 19.2429 12 21.3018 12C23.3607 12 26.4677 10.9333 26.4677 8.03101C26.4677 5.01705 22.2568 4.73798 22.2568 3.42636C22.2537 2.11473 25.1933 2.28217 26.4863 2.99535Z" fill="#1B38C3"/>
<path d="M7.25892 6.46513L6.24496 1.25273C6.24496 1.25273 6.12093 0.207764 4.8124 0.207764H0.055814L0 0.403113C0 0.403113 2.28527 0.877531 4.48062 2.65117C6.57675 4.3504 7.25892 6.46513 7.25892 6.46513Z" fill="#1B38C3"/>
</svg>
