<svg width="44" height="22" viewBox="0 0 44 22" fill="none" xmlns="http://www.w3.org/2000/svg">
<path d="M29.5658 22L32.7446 22C33.8985 22 34.9218 21.286 35.379 20.1927L43.5 0L41.7365 -7.7087e-08L34.4863 18.0061C34.2468 18.6308 33.3759 18.6308 33.1365 18.0061L25.8863 -7.69918e-07L18.8104 -1.07922e-06L23.1866 10.8438L20.3127 17.9838C20.0732 18.6085 19.2023 18.6085 18.9628 17.9838L11.7127 -1.38947e-06L0.5 -1.87959e-06L8.62101 20.1927C9.05646 21.286 10.1015 22 11.2554 22L18.5491 22C19.703 22 20.7263 21.286 21.1835 20.1927L24.0575 13.0304L26.9314 20.1927C27.3668 21.286 28.4119 22 29.5658 22Z" fill="#277CFB"/>
</svg>
